<svg xmlns="http://www.w3.org/2000/svg" xmlns:xlink="http://www.w3.org/1999/xlink" id="Layer_1" width="40" height="40" x="0" y="0" enable-background="new 0 0 40 40" version="1.1" viewBox="0 0 40 40" xml:space="preserve"><g><path fill="none" stroke="#010101" stroke-linejoin="round" stroke-miterlimit="10" d="M37.927,27.856v-12.57H15.929 c-1.735,0-3.143,1.407-3.143,3.143v9.428H37.927z"/><polygon fill="none" stroke="#010101" stroke-linejoin="round" stroke-miterlimit="10" points="23.785 4.287 37.927 4.287 37.927 15.286 20.643 15.286"/><polyline fill="none" stroke="#010101" stroke-linecap="round" stroke-linejoin="round" stroke-miterlimit="10" points="25.579 12.15 26.928 7.43 30.856 7.43"/><polyline fill="none" stroke="#010101" stroke-linecap="round" stroke-miterlimit="10" points="2.573 8.215 6.501 12.929 6.501 30.213 2.573 34.927"/><line x1="6.501" x2="12.786" y1="21.571" y2="21.571" fill="none" stroke="#010101" stroke-miterlimit="10"/><line x1="6.501" x2="12.786" y1="24.714" y2="24.714" fill="none" stroke="#010101" stroke-miterlimit="10"/><line x1="16.715" x2="23" y1="18.429" y2="18.429" fill="none" stroke="#010101" stroke-linecap="round" stroke-linejoin="round" stroke-miterlimit="10"/><line x1="16.715" x2="23" y1="21.571" y2="21.571" fill="none" stroke="#010101" stroke-linecap="round" stroke-linejoin="round" stroke-miterlimit="10"/><path fill="none" stroke="#010101" stroke-miterlimit="10" d="M12.786,31.784c0,2.17,1.759,3.929,3.929,3.929h17.284 c2.169,0,3.928-1.759,3.928-3.929c0-2.169-1.759-3.928-3.928-3.928H16.715C14.545,27.856,12.786,29.615,12.786,31.784z"/><circle cx="18.286" cy="31.784" r="1.571" fill="none" stroke="#010101" stroke-linejoin="round" stroke-miterlimit="10"/><circle cx="25.356" cy="31.784" r="1.571" fill="none" stroke="#010101" stroke-linejoin="round" stroke-miterlimit="10"/><circle cx="32.428" cy="31.784" r="1.571" fill="none" stroke="#010101" stroke-linejoin="round" stroke-miterlimit="10"/></g></svg>