<svg xmlns="http://www.w3.org/2000/svg" xmlns:xlink="http://www.w3.org/1999/xlink" id="Layer_1" width="40" height="40" x="0" y="0" enable-background="new 0 0 40 40" version="1.1" viewBox="0 0 40 40" xml:space="preserve"><polyline fill="none" stroke="#010101" stroke-linejoin="round" stroke-miterlimit="10" points="14.105 23.447 4.5 23.447 4.5 36.5 35.5 36.5 35.5 23.447 25.895 23.447"/><polyline fill="none" stroke="#010101" stroke-linejoin="round" stroke-miterlimit="10" points="13.474 23.447 1.237 23.447 6.131 12.026 15.921 12.026"/><polyline fill="none" stroke="#010101" stroke-linejoin="round" stroke-miterlimit="10" points="23.908 12.026 33.868 12.026 38.763 23.447 26.526 23.447"/><rect width="3.263" height="6.526" x="7.763" y="5.5" fill="none" stroke="#010101" stroke-linejoin="round" stroke-miterlimit="10"/><line x1="6.157" x2="12.658" y1="5.5" y2="5.5" fill="none" stroke="#010101" stroke-linecap="round" stroke-linejoin="round" stroke-miterlimit="10"/><rect width="3.264" height="6.526" x="28.974" y="5.5" fill="none" stroke="#010101" stroke-linejoin="round" stroke-miterlimit="10"/><line x1="27.368" x2="33.868" y1="5.5" y2="5.5" fill="none" stroke="#010101" stroke-linecap="round" stroke-linejoin="round" stroke-miterlimit="10"/><rect width="11.421" height="17.947" x="14.29" y="18.553" fill="none" stroke="#010101" stroke-linecap="round" stroke-linejoin="round" stroke-miterlimit="10"/><polygon fill="none" stroke="#010101" stroke-linecap="round" stroke-linejoin="round" stroke-miterlimit="10" points="20 7.165 28.974 18.553 11.026 18.553"/><rect width="3.264" height="3.263" x="28.974" y="26.711" fill="none" stroke="#010101" stroke-linejoin="round" stroke-miterlimit="10"/><rect width="3.263" height="3.263" x="7.763" y="26.711" fill="none" stroke="#010101" stroke-linejoin="round" stroke-miterlimit="10"/><rect width="4.895" height="9.789" x="17.553" y="26.711" fill="none" stroke="#010101" stroke-linejoin="round" stroke-miterlimit="10"/></svg>