<svg xmlns="http://www.w3.org/2000/svg" xmlns:xlink="http://www.w3.org/1999/xlink" id="Layer_1" width="40" height="40" x="0" y="0" enable-background="new 0 0 40 40" version="1.1" viewBox="0 0 40 40" xml:space="preserve"><g><g><polygon fill="none" stroke="#010101" stroke-linejoin="round" stroke-miterlimit="10" points="38.198 38.146 38.166 6.822 27.152 1.834 13.007 6.789 1.822 1.834 1.854 33.158 12.982 38.113 27.152 33.158"/></g><polygon fill="none" stroke="#010101" stroke-linejoin="round" stroke-miterlimit="10" points="4.982 7.25 4.982 31.042 12.982 34.212 27.152 29.462 35.006 32.558 35.006 9.571 27.152 5.752 13.007 10.493"/><line x1="23.944" x2="23.944" y1="15.201" y2="7.3" fill="none" stroke="#010101" stroke-linecap="round" stroke-linejoin="round" stroke-miterlimit="10"/><polyline fill="none" stroke="#010101" stroke-linecap="round" stroke-linejoin="round" stroke-miterlimit="10" points="5.212 23.784 13.13 26.669 19.204 24.583 19.204 31.891"/><polyline fill="none" stroke="#010101" stroke-linecap="round" stroke-linejoin="round" stroke-miterlimit="10" points="23.944 30.41 23.944 23.102 26.974 21.652 35.006 24.747"/><polyline fill="none" stroke="#010101" stroke-linecap="round" stroke-linejoin="round" stroke-miterlimit="10" points="5.082 13.621 12.883 16.731 19.155 15.151"/><line x1="8.143" x2="8.143" y1="14.707" y2="12.041" fill="none" stroke="#010101" stroke-linecap="round" stroke-linejoin="round" stroke-miterlimit="10"/><line x1="14.463" x2="14.463" y1="16.287" y2="13.621" fill="none" stroke="#010101" stroke-linecap="round" stroke-linejoin="round" stroke-miterlimit="10"/><line x1="11.303" x2="11.303" y1="16.016" y2="13.621" fill="none" stroke="#010101" stroke-linecap="round" stroke-linejoin="round" stroke-miterlimit="10"/></g></svg>