<svg xmlns="http://www.w3.org/2000/svg" xmlns:xlink="http://www.w3.org/1999/xlink" id="Layer_1" width="40" height="40" x="0" y="0" enable-background="new 0 0 40 40" version="1.1" viewBox="0 0 40 40" xml:space="preserve"><circle cx="20" cy="16.978" r="3.806" fill="none" stroke="#231F20" stroke-linecap="round" stroke-linejoin="round" stroke-miterlimit="10"/><path fill="none" stroke="#231F20" stroke-linecap="round" stroke-linejoin="round" stroke-miterlimit="10" d="M26.09,26.873H13.911	c0-3.363,2.725-6.089,6.089-6.089S26.09,23.51,26.09,26.873z"/><line x1="27.611" x2="32.342" y1="12.419" y2="7.72" fill="none" stroke="#231F20" stroke-linecap="round" stroke-linejoin="round" stroke-miterlimit="10"/><circle cx="34.462" cy="5.538" r="3.044" fill="none" stroke="#231F20" stroke-linecap="round" stroke-linejoin="round" stroke-miterlimit="10"/><line x1="29.076" x2="32.296" y1="29.103" y2="32.342" fill="none" stroke="#231F20" stroke-linecap="round" stroke-linejoin="round" stroke-miterlimit="10"/><circle cx="34.479" cy="34.462" r="3.044" fill="none" stroke="#231F20" stroke-linecap="round" stroke-linejoin="round" stroke-miterlimit="10"/><line x1="12.388" x2="7.658" y1="12.419" y2="7.72" fill="none" stroke="#231F20" stroke-linecap="round" stroke-linejoin="round" stroke-miterlimit="10"/><circle cx="5.538" cy="5.538" r="3.045" fill="none" stroke="#231F20" stroke-linecap="round" stroke-linejoin="round" stroke-miterlimit="10"/><line x1="10.924" x2="7.704" y1="29.103" y2="32.342" fill="none" stroke="#231F20" stroke-linecap="round" stroke-linejoin="round" stroke-miterlimit="10"/><circle cx="5.521" cy="34.462" r="3.044" fill="none" stroke="#231F20" stroke-linecap="round" stroke-linejoin="round" stroke-miterlimit="10"/><line x1="26.851" x2="31.418" y1="19.239" y2="19.239" fill="none" stroke="#231F20" stroke-linecap="round" stroke-linejoin="round" stroke-miterlimit="10"/><circle cx="34.462" cy="19.239" r="3.044" fill="none" stroke="#231F20" stroke-linecap="round" stroke-linejoin="round" stroke-miterlimit="10"/><line x1="13.149" x2="8.583" y1="19.239" y2="19.239" fill="none" stroke="#231F20" stroke-linecap="round" stroke-linejoin="round" stroke-miterlimit="10"/><circle cx="5.538" cy="19.239" r="3.045" fill="none" stroke="#231F20" stroke-linecap="round" stroke-linejoin="round" stroke-miterlimit="10"/></svg>