<svg xmlns="http://www.w3.org/2000/svg" xmlns:xlink="http://www.w3.org/1999/xlink" id="Layer_1" width="40" height="40" x="0" y="0" enable-background="new 0 0 40 40" version="1.1" viewBox="0 0 40 40" xml:space="preserve"><path fill="none" stroke="#231F20" stroke-miterlimit="10" d="M29.071,19.355c0,4.732-3.839,8.571-8.571,8.571	c-4.734,0-8.571-3.839-8.571-8.571v-8.571c0-4.733,3.837-8.571,8.571-8.571c4.732,0,8.571,3.838,8.571,8.571V19.355z"/><line x1="20.5" x2="20.5" y1="31.355" y2="37.355" fill="none" stroke="#231F20" stroke-miterlimit="10"/><line x1="22.214" x2="22.214" y1="3.07" y2="7.355" fill="none" stroke="#231F20" stroke-linecap="round" stroke-miterlimit="10"/><line x1="18.786" x2="18.786" y1="3.07" y2="7.355" fill="none" stroke="#231F20" stroke-linecap="round" stroke-miterlimit="10"/><line x1="8.999" x2="32.001" y1="22.726" y2="22.726" fill="none" stroke="#231F20" stroke-miterlimit="10"/><line x1="11.929" x2="17.071" y1="12.44" y2="12.44" fill="none" stroke="#231F20" stroke-linecap="round" stroke-miterlimit="10"/><line x1="11.929" x2="17.071" y1="15.869" y2="15.869" fill="none" stroke="#231F20" stroke-linecap="round" stroke-miterlimit="10"/><line x1="23.929" x2="29.071" y1="12.44" y2="12.44" fill="none" stroke="#231F20" stroke-linecap="round" stroke-miterlimit="10"/><line x1="23.929" x2="29.071" y1="15.869" y2="15.869" fill="none" stroke="#231F20" stroke-linecap="round" stroke-miterlimit="10"/><path fill="none" stroke="#231F20" stroke-linecap="round" stroke-miterlimit="10" d="M8.5,16.726v2.571c0,6.628,5.372,12,12,12	s12-5.372,12-12v-2.571"/></svg>